<?xml version="1.0" encoding="UTF-8" standalone="no"?>
<svg
   aria-hidden="true"
   focusable="false"
   data-prefix="fal"
   data-icon="clipboard"
   role="img"
   viewBox="0 0 512 512"
   class="svg-inline--fa fa-clipboard fa-w-12 fa-7x"
   version="1.1"
   id="svg4"
   sodipodi:docname="clipboard.svg"
   width="512"
   height="512"
   inkscape:version="1.1 (c4e8f9e, 2021-05-24)"
   xmlns:inkscape="http://www.inkscape.org/namespaces/inkscape"
   xmlns:sodipodi="http://sodipodi.sourceforge.net/DTD/sodipodi-0.dtd"
   xmlns="http://www.w3.org/2000/svg"
   xmlns:svg="http://www.w3.org/2000/svg">
  <defs
     id="defs8" />
  <sodipodi:namedview
     id="namedview6"
     pagecolor="#ffffff"
     bordercolor="#999999"
     borderopacity="1"
     inkscape:pageshadow="0"
     inkscape:pageopacity="0"
     inkscape:pagecheckerboard="0"
     showgrid="false"
     inkscape:zoom="1.4707031"
     inkscape:cx="191.74502"
     inkscape:cy="256"
     inkscape:current-layer="svg4" />
  <path
     fill="#4a4a4a"
     d="m 374.125,98.5 h -72.67969 c 0.32813,-2.132813 0.49219,-4.347656 0.49219,-6.5625 C 301.9375,66.589844 281.34766,46 256,46 c -25.34766,0 -45.9375,20.589844 -45.9375,45.9375 0,2.214844 0.16406,4.429687 0.49219,6.5625 H 137.875 C 116.13672,98.5 98.5,116.13672 98.5,137.875 v 288.75 c 0,21.73828 17.63672,39.375 39.375,39.375 h 236.25 c 21.73828,0 39.375,-17.63672 39.375,-39.375 V 137.875 C 413.5,116.13672 395.86328,98.5 374.125,98.5 Z M 256,72.25 c 10.91016,0 19.6875,8.777344 19.6875,19.6875 0,10.91016 -8.77734,19.6875 -19.6875,19.6875 -10.91016,0 -19.6875,-8.77734 -19.6875,-19.6875 0,-10.910156 8.77734,-19.6875 19.6875,-19.6875 z m 131.25,354.375 c 0,7.21875 -5.90625,13.125 -13.125,13.125 h -236.25 c -7.21875,0 -13.125,-5.90625 -13.125,-13.125 v -288.75 c 0,-7.21875 5.90625,-13.125 13.125,-13.125 h 39.375 v 16.40625 c 0,5.41406 4.42969,9.84375 9.84375,9.84375 h 137.8125 c 5.41406,0 9.84375,-4.42969 9.84375,-9.84375 V 124.75 h 39.375 c 7.21875,0 13.125,5.90625 13.125,13.125 z"
     class=""
     id="path2"
     style="stroke-width:0.820312" />
</svg>
