<?xml version="1.0" encoding="UTF-8" standalone="no"?>
<svg
   aria-hidden="true"
   focusable="false"
   data-prefix="fal"
   data-icon="books"
   role="img"
   viewBox="0 0 512 512"
   class="svg-inline--fa fa-books fa-w-18 fa-7x"
   version="1.1"
   id="svg4"
   sodipodi:docname="dictionaries.svg"
   width="512"
   height="512"
   inkscape:version="1.1 (c4e8f9e, 2021-05-24)"
   xmlns:inkscape="http://www.inkscape.org/namespaces/inkscape"
   xmlns:sodipodi="http://sodipodi.sourceforge.net/DTD/sodipodi-0.dtd"
   xmlns="http://www.w3.org/2000/svg"
   xmlns:svg="http://www.w3.org/2000/svg">
  <defs
     id="defs8" />
  <sodipodi:namedview
     id="namedview6"
     pagecolor="#ffffff"
     bordercolor="#999999"
     borderopacity="1"
     inkscape:pageshadow="0"
     inkscape:pageopacity="0"
     inkscape:pagecheckerboard="0"
     showgrid="false"
     inkscape:zoom="1.4707031"
     inkscape:cx="288.29748"
     inkscape:cy="256"
     inkscape:current-layer="svg4" />
  <path
     fill="#4a4a4a"
     d="M 465.5108,402.14664 336.93705,75.181533 c -1.25417,-3.587495 -4.65937,-5.847908 -8.27603,-5.847908 -2.19479,0 -3.62395,0.75104 -8.37811,2.413538 -4.71041,1.647914 -7.16041,6.008324 -4.57187,13.402062 -12.00207,7.065614 -43.13014,17.565595 -55.052,19.264555 -0.96979,-2.75625 -1.43646,-4.827077 -4.66666,-6.730199 v -5.016659 c 0,-12.884355 -10.44894,-23.333297 -23.3333,-23.333297 h -69.99989 c -4.34582,0 -8.18123,1.509373 -11.66665,3.572911 -3.47811,-2.063538 -7.31352,-3.572911 -11.65935,-3.572911 H 69.333297 C 56.448942,69.333625 46,79.782567 46,92.666922 V 419.33307 c 0,12.88437 10.448942,23.33331 23.333297,23.33331 h 69.999893 c 4.34583,0 8.18124,-1.50937 11.66665,-3.57291 3.48541,2.07083 7.32082,3.57291 11.66664,3.57291 h 69.9999 c 12.88435,0 23.33329,-10.44894 23.33329,-23.33331 V 156.01682 l 110.41754,280.80164 c 1.26146,3.5875 4.66666,5.84792 8.27603,5.84792 2.18749,0 3.61666,-0.75104 8.37811,-2.41355 4.69583,-1.64062 7.1677,-6.00103 4.57187,-13.40206 12.00206,-7.06561 43.13014,-17.5656 55.052,-19.26454 2.66145,7.58332 7.38644,9.22394 11.94373,7.62707 l 5.5052,-1.92501 c 4.5427,-1.59687 6.95624,-6.61353 5.36665,-11.14165 z M 139.33319,419.33307 H 69.333297 v -46.66658 h 69.999893 z m 0,-69.99988 H 69.333297 V 162.66681 h 69.999893 z m 0,-209.99967 H 69.333297 V 92.666922 h 69.999893 z m 93.33319,279.99955 h -69.9999 v -46.66658 h 69.9999 z m 0,-69.99988 h -69.9999 V 162.66681 h 69.9999 z m 0,-209.99967 h -69.9999 V 92.666922 h 69.9999 z M 380.79635,407.33101 267.5132,123.93354 c 18.38955,-3.45625 46.67388,-14.82394 55.05199,-19.26455 l 113.28316,283.39018 c -18.39685,3.46353 -46.67388,14.82393 -55.052,19.27184 z"
     class=""
     id="path2"
     style="stroke-width:0.729166" />
</svg>
