<?xml version="1.0" encoding="UTF-8" standalone="no"?>
<svg
   aria-hidden="true"
   focusable="false"
   data-prefix="fal"
   data-icon="camera-retro"
   role="img"
   viewBox="0 0 512 512"
   class="svg-inline--fa fa-camera-retro fa-w-16 fa-7x"
   version="1.1"
   id="svg4"
   sodipodi:docname="screenshot.svg"
   inkscape:version="1.1 (c4e8f9e, 2021-05-24)"
   xmlns:inkscape="http://www.inkscape.org/namespaces/inkscape"
   xmlns:sodipodi="http://sodipodi.sourceforge.net/DTD/sodipodi-0.dtd"
   xmlns="http://www.w3.org/2000/svg"
   xmlns:svg="http://www.w3.org/2000/svg">
  <defs
     id="defs8" />
  <sodipodi:namedview
     id="namedview6"
     pagecolor="#ffffff"
     bordercolor="#999999"
     borderopacity="1"
     inkscape:pageshadow="0"
     inkscape:pageopacity="0"
     inkscape:pagecheckerboard="0"
     showgrid="false"
     inkscape:zoom="1.4707031"
     inkscape:cx="255.66003"
     inkscape:cy="256"
     inkscape:current-layer="svg4" />
  <path
     fill="#4a4a4a"
     d="M 46,70.375 V 51.625 C 46,48.53125 48.53125,46 51.625,46 h 108.75 c 3.09375,0 5.625,2.53125 5.625,5.625 v 18.75 C 166,73.46875 163.46875,76 160.375,76 H 51.625 C 48.53125,76 46,73.46875 46,70.375 Z M 368.5,286 c 0,-62.0625 -50.4375,-112.5 -112.5,-112.5 -62.0625,0 -112.5,50.4375 -112.5,112.5 0,62.0625 50.4375,112.5 112.5,112.5 62.0625,0 112.5,-50.4375 112.5,-112.5 z m -30,0 c 0,45.46875 -37.03125,82.5 -82.5,82.5 -45.46875,0 -82.5,-37.03125 -82.5,-82.5 0,-45.46875 37.03125,-82.5 82.5,-82.5 45.46875,0 82.5,37.03125 82.5,82.5 z M 226,286 c 0,-16.5 13.5,-30 30,-30 8.25,0 15,-6.75 15,-15 0,-8.25 -6.75,-15 -15,-15 -33.09375,0 -60,26.90625 -60,60 0,8.25 6.75,15 15,15 8.25,0 15,-6.75 15,-15 z M 496,91 v 330 c 0,24.84375 -20.15625,45 -45,45 H 61 C 36.15625,466 16,445.84375 16,421 V 151 c 0,-24.84375 20.15625,-45 45,-45 H 188.5 L 220,64 c 8.53125,-11.34375 21.84375,-18 36,-18 h 195 c 24.84375,0 45,20.15625 45,45 z m -270,15 h 225 c 5.25,0 10.3125,0.9375 15,2.53125 V 91 c 0,-8.25 -6.75,-15 -15,-15 H 256 c -4.6875,0 -9.1875,2.25 -12,6 z m 240,45 c 0,-8.25 -6.75,-15 -15,-15 H 61 c -8.25,0 -15,6.75 -15,15 v 270 c 0,8.25 6.75,15 15,15 h 390 c 8.25,0 15,-6.75 15,-15 z"
     class=""
     id="path2"
     style="stroke-width:0.9375" />
</svg>
