<?xml version="1.0" encoding="UTF-8" standalone="no"?>
<svg
   aria-hidden="true"
   focusable="false"
   data-prefix="fal"
   data-icon="expand-arrows"
   role="img"
   viewBox="0 0 512 512"
   class="svg-inline--fa fa-expand-arrows fa-w-14 fa-7x"
   version="1.1"
   id="svg4"
   sodipodi:docname="size.svg"
   width="512"
   height="512"
   inkscape:version="1.1 (c4e8f9e, 2021-05-24)"
   xmlns:inkscape="http://www.inkscape.org/namespaces/inkscape"
   xmlns:sodipodi="http://sodipodi.sourceforge.net/DTD/sodipodi-0.dtd"
   xmlns="http://www.w3.org/2000/svg"
   xmlns:svg="http://www.w3.org/2000/svg">
  <defs
     id="defs8" />
  <sodipodi:namedview
     id="namedview6"
     pagecolor="#ffffff"
     bordercolor="#999999"
     borderopacity="1"
     inkscape:pageshadow="0"
     inkscape:pageopacity="0"
     inkscape:pagecheckerboard="0"
     showgrid="false"
     inkscape:zoom="1.4707031"
     inkscape:cx="223.70252"
     inkscape:cy="256"
     inkscape:current-layer="svg4" />
  <path
     fill="#4a4a4a"
     d="M 465.71875,357.25 466,454.75 c 0,6.1875 -5.0625,11.25 -11.25,11.25 l -97.5,-0.28125 c -6.1875,0 -11.25,-5.0625 -11.25,-11.25 v -9.375 c 0,-6.1875 5.0625,-11.25 11.25,-11.25 l 54.375,0.28125 0.65625,-0.65625 L 256,277.1875 99.71875,433.46875 100.375,434.125 154.75,433.84375 c 6.1875,0 11.25,5.0625 11.25,11.25 v 9.375 c 0,6.1875 -5.0625,11.25 -11.25,11.25 L 57.25,466 C 51.0625,466 46,460.9375 46,454.75 l 0.28125,-97.5 c 0,-6.1875 5.0625,-11.25 11.25,-11.25 h 9.375 c 6.1875,0 11.25,5.0625 11.25,11.25 L 77.875,411.625 78.53125,412.28125 234.8125,256 78.53125,99.71875 77.875,100.375 78.15625,154.75 c 0,6.1875 -5.0625,11.25 -11.25,11.25 h -9.375 c -6.1875,0 -11.25,-5.0625 -11.25,-11.25 L 46,57.25 C 46,51.0625 51.0625,46 57.25,46 l 97.5,0.28125 c 6.1875,0 11.25,5.0625 11.25,11.25 v 9.375 c 0,6.1875 -5.0625,11.25 -11.25,11.25 L 100.375,77.875 99.71875,78.53125 256,234.8125 412.28125,78.53125 411.625,77.875 357.25,78.15625 c -6.1875,0 -11.25,-5.0625 -11.25,-11.25 v -9.375 c 0,-6.1875 5.0625,-11.25 11.25,-11.25 L 454.75,46 c 6.1875,0 11.25,5.0625 11.25,11.25 l -0.28125,97.5 c 0,6.1875 -5.0625,11.25 -11.25,11.25 h -9.375 c -6.1875,0 -11.25,-5.0625 -11.25,-11.25 L 434.125,100.375 433.46875,99.71875 277.1875,256 433.46875,412.28125 434.125,411.625 433.84375,357.25 c 0,-6.1875 5.0625,-11.25 11.25,-11.25 h 9.375 c 6.1875,0 11.25,5.0625 11.25,11.25 z"
     class=""
     id="path2"
     style="stroke-width:0.9375" />
</svg>
