<?xml version="1.0" encoding="UTF-8" standalone="no"?>
<svg
   aria-hidden="true"
   focusable="false"
   data-prefix="fal"
   data-icon="stars"
   role="img"
   viewBox="0 0 512 512"
   class="svg-inline--fa fa-stars fa-w-16 fa-7x"
   version="1.1"
   id="svg4"
   sodipodi:docname="anki.svg"
   inkscape:version="1.1 (c4e8f9e, 2021-05-24)"
   xmlns:inkscape="http://www.inkscape.org/namespaces/inkscape"
   xmlns:sodipodi="http://sodipodi.sourceforge.net/DTD/sodipodi-0.dtd"
   xmlns="http://www.w3.org/2000/svg"
   xmlns:svg="http://www.w3.org/2000/svg">
  <defs
     id="defs8" />
  <sodipodi:namedview
     id="namedview6"
     pagecolor="#ffffff"
     bordercolor="#999999"
     borderopacity="1"
     inkscape:pageshadow="0"
     inkscape:pageopacity="0"
     inkscape:pagecheckerboard="0"
     showgrid="false"
     inkscape:zoom="1.4707031"
     inkscape:cx="255.66003"
     inkscape:cy="256"
     inkscape:current-layer="svg4" />
  <path
     fill="#4a4a4a"
     d="m 463.58232,225.68005 -32.57698,-13.59204 -13.58322,-32.59812 a 4.3682133,4.3682133 0 0 0 -7.8266,0 l -13.58482,32.59812 -32.57538,13.59204 a 4.380034,4.380034 0 0 0 0,7.83169 l 32.57537,13.59361 13.58481,32.59652 a 4.3669336,4.3669336 0 0 0 7.82661,0 l 13.58323,-32.59652 32.57698,-13.59363 a 4.380034,4.380034 0 0 0 0,-7.8317 z M 344.84025,265.08906 258.77353,252.53691 220.29091,174.4191 a 18.649805,18.649805 0 0 0 -16.89543,-10.48999 18.379766,18.379766 0 0 0 -16.81853,10.48999 l -38.48261,78.11781 -85.989803,12.55215 c -15.408431,2.20301 -21.561546,21.313 -10.40902,32.21286 l 62.274663,60.74975 -14.767478,85.8156 A 18.869755,18.869755 0 0 0 117.73897,466 a 18.539268,18.539268 0 0 0 8.76819,-2.20303 l 76.96523,-40.49983 76.96524,40.49983 A 19.181597,19.181597 0 0 0 289.12891,466 18.945503,18.945503 0 0 0 307.74208,443.94411 l -14.69056,-85.81559 62.27466,-60.74976 c 11.15253,-10.9767 4.9225,-29.99703 -10.48593,-32.2897 z m -79.99052,83.8431 14.43422,84.61161 -75.88844,-40.01312 -75.88844,40.01312 14.43422,-84.61161 -61.274886,-59.99407 84.810476,-12.37281 37.99549,-76.97787 37.89295,76.97787 84.83611,12.37281 z M 393.146,112.71609 353.28394,92.772119 333.36573,52.704635 c -4.43482,-8.939512 -19.04664,-8.939512 -23.48145,0 l -19.91821,39.900755 -39.86206,19.94396 a 13.163465,13.163465 0 0 0 -7.22901,11.73553 13.5051,13.5051 0 0 0 7.22901,11.90225 l 39.86206,19.94393 19.91821,39.90082 a 13.182881,13.182881 0 0 0 11.74072,7.29778 13.021427,13.021427 0 0 0 11.74073,-7.29782 l 19.91821,-39.90078 39.86206,-19.94397 a 13.140176,13.140176 0 0 0 0,-23.47103 z m -55.5249,21.82934 a 13.283452,13.283452 0 0 0 -5.896,5.91264 l -10.1001,20.27744 -10.10009,-20.27744 a 13.745854,13.745854 0 0 0 -5.896,-5.91264 l -20.25147,-10.17078 20.25147,-10.18361 a 13.220025,13.220025 0 0 0 5.896,-5.91264 L 321.625,88.00096 331.7251,108.2784 a 13.610305,13.610305 0 0 0 5.896,5.91264 l 20.25146,10.18361 z"
     class=""
     id="path2"
     style="stroke-width:0.820312" />
</svg>
