<?xml version="1.0" encoding="UTF-8" standalone="no"?>
<svg
   aria-hidden="true"
   focusable="false"
   data-prefix="fal"
   data-icon="file-csv"
   role="img"
   viewBox="0 0 512 512"
   class="svg-inline--fa fa-file-csv fa-w-12 fa-7x"
   version="1.1"
   id="svg4"
   sodipodi:docname="csv.svg"
   width="512"
   height="512"
   inkscape:version="1.1 (c4e8f9e, 2021-05-24)"
   xmlns:inkscape="http://www.inkscape.org/namespaces/inkscape"
   xmlns:sodipodi="http://sodipodi.sourceforge.net/DTD/sodipodi-0.dtd"
   xmlns="http://www.w3.org/2000/svg"
   xmlns:svg="http://www.w3.org/2000/svg">
  <defs
     id="defs8" />
  <sodipodi:namedview
     id="namedview6"
     pagecolor="#ffffff"
     bordercolor="#999999"
     borderopacity="1"
     inkscape:pageshadow="0"
     inkscape:pageopacity="0"
     inkscape:pagecheckerboard="0"
     showgrid="false"
     inkscape:zoom="1.4707031"
     inkscape:cx="191.74502"
     inkscape:cy="256"
     inkscape:current-layer="svg4" />
  <path
     fill="#4a4a4a"
     d="M 401.93359,126.37422 333.12578,57.566406 C 325.74297,50.183594 315.73516,46 305.32539,46 H 137.8668 C 116.13672,46.082031 98.5,63.71875 98.5,85.448828 V 426.6332 C 98.5,448.36328 116.13672,466 137.8668,466 H 374.1332 C 395.86328,466 413.5,448.36328 413.5,426.6332 V 154.25664 c 0,-10.40977 -4.18359,-20.49961 -11.56641,-27.88242 z M 308.52461,72.733984 c 2.29687,0.574219 4.34766,1.722657 6.07031,3.445313 l 68.80781,68.807813 c 1.72266,1.72266 2.8711,3.77344 3.44532,6.07031 H 308.52461 Z M 387.2582,426.6332 c 0,7.21875 -5.90625,13.125 -13.125,13.125 H 137.8668 c -7.21875,0 -13.125,-5.90625 -13.125,-13.125 V 85.448828 c 0,-7.21875 5.90625,-13.198828 13.125,-13.198828 h 144.40781 v 85.36992 c 0,10.91016 8.77734,19.63008 19.6875,19.63008 H 387.2582 Z M 196.9375,256 H 190.375 C 168.62852,256 151,273.62852 151,295.375 v 26.25 C 151,343.37148 168.62852,361 190.375,361 h 6.5625 c 3.62578,0 6.5625,-2.93672 6.5625,-6.5625 v -13.125 c 0,-3.62578 -2.93672,-6.5625 -6.5625,-6.5625 h -6.5625 c -7.25156,0 -13.125,-5.87344 -13.125,-13.125 v -26.25 c 0,-7.25156 5.87344,-13.125 13.125,-13.125 h 6.5625 c 3.62578,0 6.5625,-2.93672 6.5625,-6.5625 v -13.125 C 203.5,258.93672 200.56328,256 196.9375,256 Z m 91.875,0 c -3.62578,0 -6.5625,2.93672 -6.5625,6.5625 v 17.0625 c 0,29.10469 10.56562,56.51133 29.76094,77.1832 2.47734,2.66602 5.96367,4.1918 9.61406,4.1918 3.65039,0 7.13672,-1.52578 9.61406,-4.1918 C 350.44258,336.13633 361,308.72969 361,279.625 V 262.5625 C 361,258.93672 358.06328,256 354.4375,256 h -13.125 c -3.62578,0 -6.5625,2.93672 -6.5625,6.5625 v 17.0625 c 0,16.62773 -4.67578,32.95195 -13.125,46.65937 C 313.17578,312.58516 308.5,296.25273 308.5,279.625 V 262.5625 C 308.5,258.93672 305.56328,256 301.9375,256 Z m -43.10742,34.83867 c -1.13203,-0.97617 -1.73906,-2.09179 -1.73906,-3.15 0,-2.55937 3.65039,-5.43047 8.53945,-5.43047 h 10.05703 c 3.62578,0 6.5625,-2.93672 6.5625,-6.5625 v -13.125 c 0,-3.62578 -2.93672,-6.5625 -6.5625,-6.5625 h -10.06523 c -19.18711,0 -34.78946,14.21602 -34.78946,31.68047 0,8.74453 3.98672,17.16094 10.93477,23.0836 l 17.95664,15.39726 c 1.13203,0.97617 1.73906,2.0918 1.73906,3.15 0,2.55938 -3.65039,5.43047 -8.53945,5.43047 H 229.75 c -3.62578,0 -6.5625,2.93672 -6.5625,6.5625 v 13.125 c 0,3.62578 2.93672,6.5625 6.5625,6.5625 h 10.06523 c 19.18711,0 34.78946,-14.21602 34.78946,-31.68047 0,-8.74453 -3.98672,-17.16094 -10.93477,-23.08359 z"
     class=""
     id="path2"
     style="stroke-width:0.820312" />
</svg>
