<?xml version="1.0" encoding="UTF-8" standalone="no"?>
<svg
   aria-hidden="true"
   focusable="false"
   data-prefix="fal"
   data-icon="expand-wide"
   role="img"
   viewBox="0 0 512 512"
   class="svg-inline--fa fa-expand-wide fa-w-16 fa-7x"
   version="1.1"
   id="svg4"
   sodipodi:docname="frameless.svg"
   inkscape:version="1.1 (c4e8f9e, 2021-05-24)"
   xmlns:inkscape="http://www.inkscape.org/namespaces/inkscape"
   xmlns:sodipodi="http://sodipodi.sourceforge.net/DTD/sodipodi-0.dtd"
   xmlns="http://www.w3.org/2000/svg"
   xmlns:svg="http://www.w3.org/2000/svg">
  <defs
     id="defs8" />
  <sodipodi:namedview
     id="namedview6"
     pagecolor="#ffffff"
     bordercolor="#999999"
     borderopacity="1"
     inkscape:pageshadow="0"
     inkscape:pageopacity="0"
     inkscape:pagecheckerboard="0"
     showgrid="false"
     inkscape:zoom="1.4707031"
     inkscape:cx="255.66003"
     inkscape:cy="256"
     inkscape:current-layer="svg4" />
  <path
     fill="#4a4a4a"
     d="M 46,219.90625 V 118.1875 C 46,107.27734 54.777344,98.5 65.6875,98.5 h 101.71875 c 5.41406,0 9.84375,4.42969 9.84375,9.84375 v 6.5625 c 0,5.41406 -4.42969,9.84375 -9.84375,9.84375 H 72.25 v 95.15625 c 0,5.41406 -4.429688,9.84375 -9.84375,9.84375 h -6.5625 C 50.429687,229.75 46,225.32031 46,219.90625 Z M 344.59375,98.5 H 446.3125 C 457.22266,98.5 466,107.27734 466,118.1875 v 101.71875 c 0,5.41406 -4.42969,9.84375 -9.84375,9.84375 h -6.5625 c -5.41406,0 -9.84375,-4.42969 -9.84375,-9.84375 V 124.75 h -95.15625 c -5.41406,0 -9.84375,-4.42969 -9.84375,-9.84375 v -6.5625 c 0,-5.41406 4.42969,-9.84375 9.84375,-9.84375 z M 466,292.09375 V 393.8125 C 466,404.72266 457.22266,413.5 446.3125,413.5 H 344.59375 c -5.41406,0 -9.84375,-4.42969 -9.84375,-9.84375 v -6.5625 c 0,-5.41406 4.42969,-9.84375 9.84375,-9.84375 H 439.75 v -95.15625 c 0,-5.41406 4.42969,-9.84375 9.84375,-9.84375 h 6.5625 c 5.41406,0 9.84375,4.42969 9.84375,9.84375 z M 167.40625,413.5 H 65.6875 C 54.777344,413.5 46,404.72266 46,393.8125 V 292.09375 c 0,-5.41406 4.429687,-9.84375 9.84375,-9.84375 h 6.5625 c 5.414062,0 9.84375,4.42969 9.84375,9.84375 V 387.25 h 95.15625 c 5.41406,0 9.84375,4.42969 9.84375,9.84375 v 6.5625 c 0,5.41406 -4.42969,9.84375 -9.84375,9.84375 z"
     class=""
     id="path2"
     style="stroke-width:0.820312" />
</svg>
