<?xml version="1.0" encoding="UTF-8" standalone="no"?>
<svg
   aria-hidden="true"
   focusable="false"
   data-prefix="fal"
   data-icon="history"
   role="img"
   viewBox="0 0 512 512"
   class="svg-inline--fa fa-history fa-w-16 fa-7x"
   version="1.1"
   id="svg4"
   sodipodi:docname="history.svg"
   inkscape:version="1.1 (c4e8f9e, 2021-05-24)"
   xmlns:inkscape="http://www.inkscape.org/namespaces/inkscape"
   xmlns:sodipodi="http://sodipodi.sourceforge.net/DTD/sodipodi-0.dtd"
   xmlns="http://www.w3.org/2000/svg"
   xmlns:svg="http://www.w3.org/2000/svg">
  <defs
     id="defs8" />
  <sodipodi:namedview
     id="namedview6"
     pagecolor="#ffffff"
     bordercolor="#999999"
     borderopacity="1"
     inkscape:pageshadow="0"
     inkscape:pageopacity="0"
     inkscape:pagecheckerboard="0"
     showgrid="false"
     inkscape:zoom="1.4707031"
     inkscape:cx="255.66003"
     inkscape:cy="256"
     inkscape:current-layer="svg4" />
  <path
     fill="#4a4a4a"
     d="m 56.161255,59.548582 h 8.467738 c 5.61157,0 10.161286,4.549716 10.161286,10.161286 V 149.83584 C 111.36752,87.531916 179.14583,45.758872 256.67136,46.001049 372.1603,46.362621 466.18013,140.84649 465.99977,256.33543 465.81856,372.16138 371.86731,466 255.99987,466 201.86901,466 152.52242,445.51909 115.2847,411.88438 c -4.32956,-3.9104 -4.53363,-10.63632 -0.40815,-14.7618 l 5.98584,-5.98585 c 3.81303,-3.81302 9.94875,-3.99169 13.95653,-0.38443 32.08511,28.87668 74.55335,46.45739 121.18095,46.45739 99.70253,0 181.20959,-80.72379 181.20959,-181.20959 0,-99.70253 -80.72379,-181.209589 -181.20959,-181.209589 -70.16537,0 -131.02724,39.863569 -161.131738,98.225759 h 83.228548 c 5.61157,0 10.16129,4.54972 10.16129,10.16129 v 8.46774 c 0,5.61157 -4.54972,10.16128 -10.16129,10.16128 H 56.161255 c -5.611569,0 -10.161285,-4.54971 -10.161285,-10.16128 V 69.709868 c 0,-5.61157 4.549716,-10.161286 10.161285,-10.161286 z M 328.5235,326.48132 l 3.98492,-5.47863 c 3.30073,-4.5387 2.2973,-10.89374 -2.24141,-14.19447 l -60.71876,-44.1584 V 137.45177 c 0,-5.61157 -4.54972,-10.16128 -10.16129,-10.16128 h -6.77419 c -5.61157,0 -10.16128,4.54971 -10.16128,10.16128 v 138.99538 l 71.87755,52.27473 c 4.5387,3.30157 10.89374,2.29815 14.19446,-2.24056 z"
     class=""
     id="path2"
     style="stroke-width:0.846774" />
</svg>
