<?xml version="1.0" encoding="UTF-8" standalone="no"?>
<svg
   aria-hidden="true"
   focusable="false"
   data-prefix="fal"
   data-icon="desktop"
   role="img"
   viewBox="0 0 512 512"
   class="svg-inline--fa fa-desktop fa-w-18 fa-9x"
   version="1.1"
   id="svg4"
   sodipodi:docname="monitor.svg"
   width="512"
   height="512"
   inkscape:version="1.1 (c4e8f9e, 2021-05-24)"
   xmlns:inkscape="http://www.inkscape.org/namespaces/inkscape"
   xmlns:sodipodi="http://sodipodi.sourceforge.net/DTD/sodipodi-0.dtd"
   xmlns="http://www.w3.org/2000/svg"
   xmlns:svg="http://www.w3.org/2000/svg">
  <defs
     id="defs8" />
  <sodipodi:namedview
     id="namedview6"
     pagecolor="#ffffff"
     bordercolor="#999999"
     borderopacity="1"
     inkscape:pageshadow="0"
     inkscape:pageopacity="0"
     inkscape:pagecheckerboard="0"
     showgrid="false"
     inkscape:zoom="1.4707031"
     inkscape:cx="288.29748"
     inkscape:cy="256"
     inkscape:current-layer="svg4" />
  <path
     fill="#4a4a4a"
     d="M 431,69.333335 H 81 c -19.322917,0 -35,15.677083 -35,35.000005 v 210 c 0,19.32291 15.677083,35 35,35 h 140 l -17.5,70 H 151 c -6.41667,0 -11.66667,5.25 -11.66667,11.66666 0,6.41666 5.25,11.66666 11.66667,11.66666 h 210 c 6.41667,0 11.66667,-5.25 11.66667,-11.66666 0,-6.41666 -5.25,-11.66666 -11.66667,-11.66666 h -52.5 l -17.5,-70 h 140 c 19.32292,0 35,-15.67709 35,-35 v -210 C 466,85.010418 450.32292,69.333335 431,69.333335 Z M 227.5625,419.33334 239.22917,372.66666 h 33.54166 l 11.66667,46.66668 z m 215.10417,-105 C 442.66667,320.75 437.41667,326 431,326 H 81 c -6.416667,0 -11.666667,-5.25 -11.666667,-11.66666 v -210 c 0,-6.416672 5.25,-11.666672 11.666667,-11.666672 h 350 c 6.41667,0 11.66667,5.25 11.66667,11.666672 z"
     class=""
     id="path2"
     style="stroke-width:0.729167" />
</svg>
