<?xml version="1.0" encoding="UTF-8" standalone="no"?>
<svg
   aria-hidden="true"
   focusable="false"
   data-prefix="fal"
   data-icon="hdd"
   role="img"
   viewBox="0 0 512 512"
   class="svg-inline--fa fa-hdd fa-w-18 fa-7x"
   version="1.1"
   id="svg4"
   sodipodi:docname="open.svg"
   width="512"
   height="512"
   inkscape:version="1.1 (c4e8f9e, 2021-05-24)"
   xmlns:inkscape="http://www.inkscape.org/namespaces/inkscape"
   xmlns:sodipodi="http://sodipodi.sourceforge.net/DTD/sodipodi-0.dtd"
   xmlns="http://www.w3.org/2000/svg"
   xmlns:svg="http://www.w3.org/2000/svg">
  <defs
     id="defs8" />
  <sodipodi:namedview
     id="namedview6"
     pagecolor="#ffffff"
     bordercolor="#999999"
     borderopacity="1"
     inkscape:pageshadow="0"
     inkscape:pageopacity="0"
     inkscape:pagecheckerboard="0"
     showgrid="false"
     inkscape:zoom="1.4707031"
     inkscape:cx="288.29748"
     inkscape:cy="256"
     inkscape:current-layer="svg4" />
  <path
     fill="#4a4a4a"
     d="M 459.30552,235.12906 383.1499,130.41417 A 35.000729,35.000729 0 0 0 354.84365,116 h -197.6873 a 34.998542,34.998542 0 0 0 -28.30552,14.41417 L 52.694479,235.12906 A 34.997083,34.997083 0 0 0 46,255.7149 V 361 c 0,19.33021 15.669792,35 35,35 h 350 c 19.33021,0 35,-15.66979 35,-35 V 255.7149 a 34.997083,34.997083 0 0 0 -6.69448,-20.58584 z M 147.72094,144.13781 a 11.701667,11.701667 0 0 1 9.43541,-4.80448 h 197.68802 c 3.72021,0 7.24719,1.79594 9.43542,4.80448 l 64.38396,88.52886 H 83.33625 Z M 442.66667,267.66667 V 361 c 0,6.43344 -5.23396,11.66667 -11.66667,11.66667 H 81 c -6.432708,0 -11.666667,-5.23323 -11.666667,-11.66667 V 267.66667 C 69.333333,261.22302 74.556354,256 81,256 h 350 c 6.44365,0 11.66667,5.22302 11.66667,11.66667 z m -40.83334,46.66666 c 0,9.66511 -7.83489,17.5 -17.5,17.5 -9.6651,0 -17.5,-7.83489 -17.5,-17.5 0,-9.6651 7.8349,-17.5 17.5,-17.5 9.66511,0 17.5,7.8349 17.5,17.5 z m -46.66666,0 c 0,9.66511 -7.8349,17.5 -17.5,17.5 -9.66511,0 -17.5,-7.83489 -17.5,-17.5 0,-9.6651 7.83489,-17.5 17.5,-17.5 9.6651,0 17.5,7.8349 17.5,17.5 z"
     class=""
     id="path2"
     style="stroke-width:0.729167" />
</svg>
