<?xml version="1.0" encoding="UTF-8" standalone="no"?>
<svg
   aria-hidden="true"
   focusable="false"
   data-prefix="fal"
   data-icon="crosshairs"
   role="img"
   viewBox="0 0 512 512"
   class="svg-inline--fa fa-crosshairs fa-w-16 fa-7x"
   version="1.1"
   id="svg4"
   sodipodi:docname="position.svg"
   inkscape:version="1.1 (c4e8f9e, 2021-05-24)"
   xmlns:inkscape="http://www.inkscape.org/namespaces/inkscape"
   xmlns:sodipodi="http://sodipodi.sourceforge.net/DTD/sodipodi-0.dtd"
   xmlns="http://www.w3.org/2000/svg"
   xmlns:svg="http://www.w3.org/2000/svg">
  <defs
     id="defs8" />
  <sodipodi:namedview
     id="namedview6"
     pagecolor="#ffffff"
     bordercolor="#999999"
     borderopacity="1"
     inkscape:pageshadow="0"
     inkscape:pageopacity="0"
     inkscape:pagecheckerboard="0"
     showgrid="false"
     inkscape:zoom="1.4707031"
     inkscape:cx="255.66003"
     inkscape:cy="256"
     inkscape:current-layer="svg4" />
  <path
     fill="#aa0000"
     d="M 461.07812,242.875 H 432.7027 C 426.30344,155.48055 356.51945,85.696563 269.125,79.297305 V 50.921875 A 4.921875,4.921875 0 0 0 264.20312,46 h -16.40625 a 4.921875,4.921875 0 0 0 -4.92187,4.921875 v 28.37543 C 155.48055,85.696563 85.696563,155.48055 79.297305,242.875 H 50.921875 A 4.921875,4.921875 0 0 0 46,247.79687 v 16.40625 a 4.921875,4.921875 0 0 0 4.921875,4.92188 h 28.37543 C 85.696563,356.51945 155.48055,426.30344 242.875,432.7027 v 28.37542 A 4.921875,4.921875 0 0 0 247.79687,466 h 16.40625 a 4.921875,4.921875 0 0 0 4.92188,-4.92188 V 432.7027 c 87.39445,-6.39926 157.17844,-76.18325 163.5777,-163.5777 h 28.37542 A 4.921875,4.921875 0 0 0 466,264.20312 V 247.79687 A 4.921875,4.921875 0 0 0 461.07812,242.875 Z M 269.125,406.36738 v -53.57051 a 4.921875,4.921875 0 0 0 -4.92188,-4.92187 h -16.40625 a 4.921875,4.921875 0 0 0 -4.92187,4.92187 v 53.57051 C 170.09852,400.13793 111.8834,342.15824 105.63262,269.125 h 53.57051 a 4.921875,4.921875 0 0 0 4.92187,-4.92188 V 247.79687 A 4.921875,4.921875 0 0 0 159.20313,242.875 H 105.63262 C 111.86207,170.09852 169.84176,111.88422 242.875,105.63262 v 53.57051 a 4.921875,4.921875 0 0 0 4.92187,4.92187 h 16.40625 a 4.921875,4.921875 0 0 0 4.92188,-4.92187 v -53.57051 c 72.77648,6.22945 130.9916,64.20914 137.24238,137.24238 h -53.57051 a 4.921875,4.921875 0 0 0 -4.92187,4.92187 v 16.40625 a 4.921875,4.921875 0 0 0 4.92187,4.92188 h 53.57051 C 400.13793,341.90148 342.15824,400.11578 269.125,406.36738 Z M 275.6875,256 c 0,10.87324 -8.81426,19.6875 -19.6875,19.6875 -10.87324,0 -19.6875,-8.81426 -19.6875,-19.6875 0,-10.87324 8.81426,-19.6875 19.6875,-19.6875 10.87324,0 19.6875,8.81426 19.6875,19.6875 z"
     class=""
     id="path2"
     style="stroke-width:0.820312" />
</svg>
