<?xml version="1.0" encoding="UTF-8" standalone="no"?>
<svg
   aria-hidden="true"
   focusable="false"
   data-prefix="fal"
   data-icon="broom"
   role="img"
   viewBox="0 0 512 512"
   class="svg-inline--fa fa-broom fa-w-20 fa-7x"
   version="1.1"
   id="svg4"
   sodipodi:docname="trash.svg"
   width="512"
   height="512"
   inkscape:version="1.1 (c4e8f9e, 2021-05-24)"
   xmlns:inkscape="http://www.inkscape.org/namespaces/inkscape"
   xmlns:sodipodi="http://sodipodi.sourceforge.net/DTD/sodipodi-0.dtd"
   xmlns="http://www.w3.org/2000/svg"
   xmlns:svg="http://www.w3.org/2000/svg">
  <defs
     id="defs8" />
  <sodipodi:namedview
     id="namedview6"
     pagecolor="#ffffff"
     bordercolor="#999999"
     borderopacity="1"
     inkscape:pageshadow="0"
     inkscape:pageopacity="0"
     inkscape:pagecheckerboard="0"
     showgrid="false"
     inkscape:zoom="1.4707031"
     inkscape:cx="320.25498"
     inkscape:cy="256"
     inkscape:current-layer="svg4" />
  <path
     fill="#aa0000"
     d="m 464.85802,98.19227 -6.53625,-8.209685 c -1.80468,-2.264062 -5.10562,-2.644687 -7.37624,-0.84 L 290.72213,215.75287 260.90214,178.29413 c -3.26813,-4.10157 -9.555,-3.92438 -12.58688,0.34781 l -31.90686,45.01217 c -18.72281,0.21 -70.34999,3.26157 -103.69404,29.77406 C 71.449371,286.22754 46.000002,423.60032 46.000002,423.60032 56.093125,424.04 187.1659,428.07594 226.89527,396.4972 c 33.4228,-26.565 48.11624,-76.26936 52.49342,-94.3556 l 50.83968,-20.52094 c 4.8825,-1.96875 6.49031,-8.085 3.21562,-12.20624 l -29.6428,-37.24218 160.21683,-126.61028 a 5.240155,5.240155 0 0 0 0.84,-7.36969 z M 213.82277,380.43876 c -17.52187,13.92563 -71.81998,22.575 -141.704024,22.575 h -0.39375 c 2.664374,-11.64844 5.879998,-24.16312 9.449997,-36.69749 l 45.143427,-35.88374 c 3.255,-2.58563 0.80062,-7.79625 -3.26156,-6.93656 l -30.174369,6.37218 c 9.850309,-27.32624 21.223119,-50.73467 32.910929,-60.02061 22.04999,-17.52843 58.85905,-24.43874 87.87185,-25.18687 l 44.47405,55.86655 c -4.71843,18.07312 -17.8303,58.85905 -44.31655,79.91154 z m 57.15936,-97.69591 -37.36686,-46.94155 18.63749,-26.55843 c 1.50938,-2.1525 4.66594,-2.25094 6.30656,-0.19031 l 44.36906,55.73529 c 1.65374,2.07375 0.82031,5.15157 -1.64719,6.12282 z"
     class=""
     id="path2"
     style="stroke-width:0.65625" />
</svg>
